<svg width="512" height="512" viewBox="0 0 512 512" fill="none" xmlns="http://www.w3.org/2000/svg">
<path d="M432 96H336V72C336 61.3913 331.786 51.2172 324.284 43.7157C316.783 36.2143 306.609 32 296 32H216C205.391 32 195.217 36.2143 187.716 43.7157C180.214 51.2172 176 61.3913 176 72V96H80C75.7565 96 71.6869 97.6857 68.6863 100.686C65.6857 103.687 64 107.757 64 112C64 116.243 65.6857 120.313 68.6863 123.314C71.6869 126.314 75.7565 128 80 128H97L116 432.92C117.42 459.77 138 480 164 480H348C374.13 480 394.3 460.22 396 433L415 128H432C436.243 128 440.313 126.314 443.314 123.314C446.314 120.313 448 116.243 448 112C448 107.757 446.314 103.687 443.314 100.686C440.313 97.6857 436.243 96 432 96ZM192.57 416H192C187.853 416.003 183.868 414.395 180.883 411.517C177.898 408.639 176.148 404.714 176 400.57L168 176.57C167.849 172.327 169.39 168.197 172.283 165.089C175.177 161.982 179.187 160.151 183.43 160C187.673 159.849 191.803 161.39 194.911 164.283C198.018 167.177 199.849 171.187 200 175.43L208 399.43C208.076 401.531 207.737 403.627 207.003 405.598C206.269 407.568 205.153 409.375 203.72 410.914C202.287 412.452 200.564 413.694 198.651 414.567C196.738 415.439 194.672 415.926 192.57 416ZM272 400C272 404.243 270.314 408.313 267.314 411.314C264.313 414.314 260.243 416 256 416C251.757 416 247.687 414.314 244.686 411.314C241.686 408.313 240 404.243 240 400V176C240 171.757 241.686 167.687 244.686 164.686C247.687 161.686 251.757 160 256 160C260.243 160 264.313 161.686 267.314 164.686C270.314 167.687 272 171.757 272 176V400ZM304 96H208V72C207.988 70.9461 208.187 69.9004 208.584 68.9243C208.982 67.9483 209.571 67.0616 210.316 66.3163C211.062 65.571 211.948 64.9822 212.924 64.5844C213.9 64.1866 214.946 63.9879 216 64H296C297.054 63.9879 298.1 64.1866 299.076 64.5844C300.052 64.9822 300.938 65.571 301.684 66.3163C302.429 67.0616 303.018 67.9483 303.416 68.9243C303.813 69.9004 304.012 70.9461 304 72V96ZM336 400.57C335.852 404.714 334.102 408.639 331.117 411.517C328.132 414.395 324.147 416.003 320 416H319.42C317.319 415.925 315.254 415.437 313.342 414.564C311.43 413.69 309.709 412.449 308.277 410.91C306.845 409.371 305.73 407.565 304.996 405.596C304.262 403.626 303.924 401.531 304 399.43L312 175.43C312.075 173.329 312.563 171.263 313.436 169.35C314.309 167.438 315.551 165.716 317.089 164.283C318.628 162.85 320.434 161.735 322.404 161C324.374 160.265 326.469 159.925 328.57 160C330.671 160.075 332.737 160.563 334.65 161.436C336.562 162.309 338.284 163.551 339.717 165.089C341.15 166.628 342.265 168.434 343 170.404C343.735 172.374 344.075 174.469 344 176.57L336 400.57Z" fill="white"/>
</svg>
