<svg width="512" height="512" viewBox="0 0 512 512" fill="none" xmlns="http://www.w3.org/2000/svg">
<path d="M384 224V408C384 413.253 382.965 418.454 380.955 423.307C378.945 428.16 375.999 432.57 372.284 436.284C368.57 439.999 364.16 442.945 359.307 444.955C354.454 446.965 349.253 448 344 448H104C93.3913 448 83.2172 443.786 75.7157 436.284C68.2143 428.783 64 418.609 64 408V168C64 157.391 68.2143 147.217 75.7157 139.716C83.2172 132.214 93.3913 128 104 128H271.48" stroke="white" stroke-width="32" stroke-linecap="round" stroke-linejoin="round"/>
<path d="M459.94 53.25C458.479 51.6445 456.707 50.3518 454.732 49.4502C452.757 48.5486 450.62 48.0568 448.45 48.0044C446.28 47.9521 444.121 48.3403 442.105 49.1457C440.089 49.951 438.257 51.1568 436.72 52.69L424.35 65C422.851 66.5002 422.009 68.5342 422.009 70.655C422.009 72.7759 422.851 74.8099 424.35 76.31L435.69 87.63C436.433 88.3769 437.317 88.9695 438.29 89.3738C439.263 89.7782 440.306 89.9864 441.36 89.9864C442.414 89.9864 443.457 89.7782 444.43 89.3738C445.403 88.9695 446.287 88.3769 447.03 87.63L459.09 75.63C465.19 69.54 465.76 59.62 459.94 53.25Z" fill="white"/>
<path d="M399.34 90L218.82 270.2C217.726 271.29 216.93 272.643 216.51 274.13L208.16 299C207.96 299.675 207.946 300.391 208.119 301.073C208.292 301.756 208.646 302.378 209.144 302.876C209.642 303.374 210.264 303.728 210.947 303.901C211.629 304.074 212.345 304.06 213.02 303.86L237.87 295.51C239.357 295.09 240.71 294.295 241.8 293.2L422 112.66C423.667 110.975 424.602 108.7 424.602 106.33C424.602 103.96 423.667 101.685 422 100L412.05 90C410.363 88.3177 408.078 87.3729 405.695 87.3729C403.312 87.3729 401.027 88.3177 399.34 90V90Z" fill="white"/>
</svg>
