<svg width="512" height="512" viewBox="0 0 512 512" fill="none" xmlns="http://www.w3.org/2000/svg">
<path d="M160 256C160 251.757 161.686 247.687 164.686 244.686C167.687 241.686 171.757 240 176 240H320V136C320 104 286.21 80 256 80H104C89.1528 80.0159 74.9182 85.921 64.4196 96.4196C53.921 106.918 48.0159 121.153 48 136V376C48.0159 390.847 53.921 405.082 64.4196 415.58C74.9182 426.079 89.1528 431.984 104 432H264C278.847 431.984 293.082 426.079 303.58 415.58C314.079 405.082 319.984 390.847 320 376V272H176C171.757 272 167.687 270.314 164.686 267.314C161.686 264.313 160 260.243 160 256Z" fill="white"/>
<path d="M459.31 244.69L379.31 164.69C376.285 161.816 372.257 160.238 368.085 160.291C363.913 160.344 359.926 162.026 356.976 164.976C354.026 167.926 352.344 171.913 352.291 176.085C352.238 180.257 353.816 184.285 356.69 187.31L409.37 240H320V272H409.37L356.69 324.69C355.142 326.161 353.904 327.927 353.049 329.884C352.194 331.841 351.739 333.949 351.712 336.085C351.684 338.22 352.085 340.34 352.889 342.318C353.694 344.296 354.887 346.093 356.397 347.603C357.907 349.113 359.704 350.306 361.682 351.111C363.66 351.915 365.78 352.316 367.915 352.288C370.051 352.261 372.159 351.806 374.116 350.951C376.073 350.096 377.839 348.858 379.31 347.31L459.31 267.31C462.308 264.31 463.993 260.242 463.993 256C463.993 251.758 462.308 247.69 459.31 244.69V244.69Z" fill="white"/>
</svg>
